<?xml version="1.0" encoding="UTF-8" standalone="no"?><!DOCTYPE svg PUBLIC "-//W3C//DTD SVG 1.1//EN" "http://www.w3.org/Graphics/SVG/1.1/DTD/svg11.dtd"><svg width="100%" height="100%" viewBox="0 0 512 512" version="1.1" xmlns="http://www.w3.org/2000/svg" xmlns:xlink="http://www.w3.org/1999/xlink" xml:space="preserve" xmlns:serif="http://www.serif.com/" style="fill-rule:evenodd;clip-rule:evenodd;stroke-linejoin:round;stroke-miterlimit:2;"><rect id="LOGO" x="-0" y="0" width="512" height="512" style="fill:none;"/><g><path d="M469.422,147.188l-22.693,0c0,0 -12.74,-111.473 -140.934,-111.473c-128.195,-0 -174.476,109.881 -174.476,217.498c-0,107.616 40.21,223.693 179.95,223.693c126.304,0 155.665,-114.26 155.665,-114.26l25.792,-0c-0,-0 -13.138,93.167 -26.276,102.323c-13.138,9.157 -73.254,36.627 -159.248,36.627c-85.994,0 -287.928,-20.758 -287.928,-247.811c0,-227.052 241.049,-243.381 286.149,-243.381c45.099,-0 162.509,18.647 162.509,45.401c-0,26.753 1.49,91.383 1.49,91.383Z" style="fill:#fec62f;"/><path d="M272.889,293.324l-8.258,0.079c-0,-28.04 -12.209,-36.658 -44.82,-36.658l-0,88.932c-0,17.829 10.697,16.698 10.697,16.698l34.701,0c15.264,0 29.092,-45.399 29.092,-45.399l6.914,0l-5.74,64.863l-135.137,0l-0,-15.933c11.348,-0 20.11,1.933 20.11,-11.701l-0,-201.006c-0,-8.357 -10.897,-7.745 -22.316,-7.745l0,-15.841l127.908,0l-0,58.604l-9.173,-0c0,-0 -1.528,-43.061 -20.129,-43.061l-36.436,0l0,96.022c19.946,-0 44.562,2.218 44.329,-31.582l8.258,0l0,83.728Z" style="fill:#fec62f;"/><path d="M315.452,186.833l-0,-57.114l121.904,0l0,17.327l-95.038,214.283l69.049,0c0,0 19.11,-2.038 19.11,-30.066c-0,-28.027 -0,-13.249 -0,-13.249l10.701,-0l0,63.393l-132.188,-0c0,-0 -4.857,-4.534 -4.857,-19.256c0,-19.565 91.493,-213.584 91.493,-213.584l-55.179,-0c0,-0 -15.002,0.213 -15.002,19.39c-0,19.177 -0,18.876 -0,18.876l-9.993,0Z" style="fill:#fec62f;"/></g></svg>